<svg id="icon_cs" data-name="icon/cs" xmlns="http://www.w3.org/2000/svg" width="70" height="70" viewBox="0 0 70 70">
  <circle id="icon-bg" cx="35" cy="35" r="35" fill="none"/>
  <g id="path" transform="translate(-924.203 -1009.742)">
    <g id="그룹_592" data-name="그룹 592" transform="translate(941.154 1023.742)">
      <path id="패스_554" data-name="패스 554" d="M977.427,1056.673H942.5a4.177,4.177,0,0,1-4.231-4.114v-24.7a4.178,4.178,0,0,1,4.231-4.114h26.481a.784.784,0,1,1,0,1.569H942.5a2.609,2.609,0,0,0-2.662,2.545v24.7a2.608,2.608,0,0,0,2.662,2.545h34.925a2.609,2.609,0,0,0,2.662-2.545v-24.7a2.61,2.61,0,0,0-2.662-2.545H974.5a.784.784,0,1,1,0-1.569h2.923a4.178,4.178,0,0,1,4.231,4.114v24.7A4.177,4.177,0,0,1,977.427,1056.673Z" transform="translate(-938.271 -1023.742)" fill="#1e1e1e"/>
    </g>
    <g id="그룹_593" data-name="그룹 593" transform="translate(942.454 1047.796)">
      <rect id="사각형_101" data-name="사각형 101" width="40.492" height="1.569" fill="#1e1e1e"/>
    </g>
    <g id="그룹_594" data-name="그룹 594" transform="translate(961.367 1050.69)">
      <circle id="타원_32" data-name="타원 32" cx="1.48" cy="1.48" r="1.48" fill="#2c2c2c"/>
    </g>
    <g id="그룹_595" data-name="그룹 595" transform="translate(954.097 1055.104)">
      <path id="패스_555" data-name="패스 555" d="M963.727,1053.142H946.521l3.765-9.41h9.675Zm-14.889-1.569H961.41l-2.51-6.272h-7.551Z" transform="translate(-946.521 -1043.732)" fill="#2c2c2c"/>
    </g>
    <g id="그룹_596" data-name="그룹 596" transform="translate(933.987 1042.099)">
      <rect id="사각형_102" data-name="사각형 102" width="15.902" height="15.07" rx="1.747" fill="#fff"/>
    </g>
    <g id="그룹_597" data-name="그룹 597" transform="translate(933.987 1056.283)">
      <rect id="사각형_103" data-name="사각형 103" width="13.473" height="8.519" rx="0.881" fill="#00e789"/>
    </g>
    <g id="그룹_598" data-name="그룹 598" transform="translate(933.203 1041.315)">
      <path id="패스_556" data-name="패스 556" d="M947.149,1059.609h-10.42a3.531,3.531,0,0,1-3.525-3.527v-17.614a3.529,3.529,0,0,1,3.525-3.525h10.42a3.529,3.529,0,0,1,3.525,3.525v17.614A3.531,3.531,0,0,1,947.149,1059.609Zm-10.42-23.1a1.96,1.96,0,0,0-1.956,1.956v17.614a1.96,1.96,0,0,0,1.956,1.958h10.42a1.96,1.96,0,0,0,1.956-1.958v-17.614a1.96,1.96,0,0,0-1.956-1.956Z" transform="translate(-933.203 -1034.943)" fill="#1e1e1e"/>
    </g>
    <g id="그룹_599" data-name="그룹 599" transform="translate(939.111 1059.406)">
      <path id="패스_557" data-name="패스 557" d="M941.839,1048.043h-4.085a.784.784,0,1,1,0-1.569h4.085a.784.784,0,0,1,0,1.569Z" transform="translate(-936.969 -1046.474)" fill="#1e1e1e"/>
    </g>
    <g id="그룹_606" data-name="그룹 606" transform="translate(953.431 1029.072)">
      <g id="그룹_600" data-name="그룹 600" transform="translate(0 6.322)">
        <path id="패스_558" data-name="패스 558" d="M948.593,1031.669a2,2,0,1,0,0,3.991h1.457v-3.991Z" transform="translate(-945.812 -1030.885)" fill="#00d981"/>
        <path id="패스_559" data-name="패스 559" d="M951.119,1036.731h-2.242a2.781,2.781,0,1,1,0-5.562h2.242Zm-2.242-3.993a1.212,1.212,0,1,0,0,2.424h.673v-2.424Z" transform="translate(-946.096 -1031.169)" fill="#2c2c2c"/>
      </g>
      <g id="그룹_601" data-name="그룹 601" transform="translate(13.516 6.322)">
        <path id="패스_560" data-name="패스 560" d="M956.668,1031.669a2,2,0,0,1,0,3.991h-1.458v-3.991Z" transform="translate(-954.427 -1030.885)" fill="#00d981"/>
        <path id="패스_561" data-name="패스 561" d="M956.953,1036.731h-2.242v-5.562h2.242a2.781,2.781,0,0,1,0,5.562Zm-.673-1.569h.673a1.212,1.212,0,0,0,0-2.424h-.673Z" transform="translate(-954.711 -1031.169)" fill="#2c2c2c"/>
      </g>
      <g id="그룹_603" data-name="그룹 603" transform="translate(2.661)">
        <g id="그룹_602" data-name="그룹 602">
          <path id="패스_562" data-name="패스 562" d="M961.054,1033.769h-1.569a5.062,5.062,0,0,0-10.124,0h-1.569a6.631,6.631,0,0,1,13.262,0Z" transform="translate(-947.792 -1027.139)" fill="#2c2c2c"/>
        </g>
      </g>
      <g id="그룹_604" data-name="그룹 604" transform="translate(10.282 10.475)">
        <path id="패스_563" data-name="패스 563" d="M955.728,1038.522h-2.294a.784.784,0,1,1,0-1.569h2.294a.994.994,0,0,0,.993-.993v-1.36a.784.784,0,1,1,1.569,0v1.36A2.565,2.565,0,0,1,955.728,1038.522Z" transform="translate(-952.65 -1033.816)" fill="#2c2c2c"/>
      </g>
      <g id="그룹_605" data-name="그룹 605" transform="translate(8.517 13.006)">
        <rect id="사각형_104" data-name="사각형 104" width="3.738" height="2.785" rx="0.888" fill="#2c2c2c"/>
      </g>
    </g>
  </g>
</svg>
