<svg id="icon_apple" data-name="icon/apple" xmlns="http://www.w3.org/2000/svg" width="44" height="44" viewBox="0 0 44 44">
  <rect id="icon-frame" width="44" height="44" fill="none"/>
  <path id="apple-brands" d="M28.39,50.345a7.235,7.235,0,0,1,3.875-6.572A8.327,8.327,0,0,0,25.7,40.316c-2.751-.217-5.758,1.6-6.859,1.6-1.163,0-3.829-1.527-5.921-1.527C8.6,40.463,4,43.842,4,50.717A19.317,19.317,0,0,0,5.116,57.01c.992,2.844,4.573,9.82,8.308,9.7,1.953-.047,3.333-1.387,5.875-1.387,2.465,0,3.743,1.387,5.921,1.387,3.767-.054,7.006-6.394,7.952-9.246a7.683,7.683,0,0,1-4.782-7.123ZM24,37.619A7.3,7.3,0,0,0,25.864,32,8.218,8.218,0,0,0,20.6,34.7a7.414,7.414,0,0,0-1.984,5.572A6.509,6.509,0,0,0,24,37.619Z" transform="translate(3.414 -27.357)" fill="#f2f3fb"/>
</svg>
