<svg id="icon_insta" data-name="icon/insta" xmlns="http://www.w3.org/2000/svg" xmlns:xlink="http://www.w3.org/1999/xlink" width="24" height="24" viewBox="0 0 24 24">
  <defs>
    <linearGradient id="linear-gradient" x1="-0.022" y1="0.468" x2="0.978" y2="0.468" gradientUnits="objectBoundingBox">
      <stop offset="0" stop-color="#764797"/>
      <stop offset="0.263" stop-color="#d72c88"/>
      <stop offset="0.518" stop-color="#e6215f"/>
      <stop offset="0.818" stop-color="#eb801a"/>
      <stop offset="1" stop-color="#efb235"/>
    </linearGradient>
  </defs>
  <circle id="타원_184" data-name="타원 184" cx="12" cy="12" r="12" transform="translate(24) rotate(90)" fill="url(#linear-gradient)"/>
  <g id="그룹_19428" data-name="그룹 19428" transform="translate(6.032 6.033)">
    <g id="그룹_19426" data-name="그룹 19426" transform="translate(0 0)">
      <path id="패스_8051" data-name="패스 8051" d="M1162.58,705.929h-6.331a2.805,2.805,0,0,1-2.8-2.8V696.8a2.806,2.806,0,0,1,2.8-2.8h6.331a2.8,2.8,0,0,1,2.8,2.8v6.331A2.8,2.8,0,0,1,1162.58,705.929Zm-6.331-10.632a1.5,1.5,0,0,0-1.5,1.5v6.331a1.5,1.5,0,0,0,1.5,1.5h6.331a1.5,1.5,0,0,0,1.5-1.5V696.8a1.5,1.5,0,0,0-1.5-1.5Z" transform="translate(-1153.447 -693.995)" fill="#fff"/>
    </g>
    <g id="그룹_19427" data-name="그룹 19427" transform="translate(2.818 2.816)">
      <path id="패스_8052" data-name="패스 8052" d="M1161.009,704.71a3.151,3.151,0,1,1,3.15-3.151A3.154,3.154,0,0,1,1161.009,704.71Zm0-4.975a1.825,1.825,0,1,0,1.824,1.825A1.827,1.827,0,0,0,1161.009,699.734Z" transform="translate(-1157.86 -698.408)" fill="#fff"/>
    </g>
    <circle id="타원_185" data-name="타원 185" cx="0.663" cy="0.663" r="0.663" transform="translate(8.4 2.253)" fill="#fff"/>
  </g>
</svg>
