<svg id="icon_manage" data-name="icon/manage" xmlns="http://www.w3.org/2000/svg" width="70" height="70" viewBox="0 0 70 70">
  <circle id="icon-bg" cx="35" cy="35" r="35" fill="none"/>
  <g id="path" transform="translate(9 13)">
    <g id="그룹_519" data-name="그룹 519" transform="translate(3.994 0.673)">
      <rect id="사각형_88" data-name="사각형 88" width="16.547" height="8.232" rx="1.067" fill="#00e789"/>
    </g>
    <g id="그룹_520" data-name="그룹 520" transform="translate(3.322 8.232)">
      <path id="패스_518" data-name="패스 518" d="M1224.658,535.558h-13.616a.672.672,0,0,1,0-1.344h13.616a.672.672,0,0,1,0,1.344Z" transform="translate(-1210.37 -534.214)" fill="#1e1e1e"/>
    </g>
    <g id="그룹_521" data-name="그룹 521" transform="translate(0 42.013)">
      <path id="패스_519" data-name="패스 519" d="M1216.311,560.688h-7.74a.672.672,0,1,1,0-1.344h7.74a.672.672,0,0,1,0,1.344Z" transform="translate(-1207.899 -559.344)" fill="#1e1e1e"/>
    </g>
    <g id="그룹_522" data-name="그룹 522" transform="translate(12.061 42.012)">
      <rect id="사각형_89" data-name="사각형 89" width="35.766" height="1.344" fill="#1e1e1e"/>
    </g>
    <g id="그룹_523" data-name="그룹 523" transform="translate(8.027 20.454)">
      <circle id="타원_25" data-name="타원 25" cx="4.033" cy="4.033" r="4.033" fill="#485f6e"/>
    </g>
    <g id="그룹_524" data-name="그룹 524" transform="translate(35.213 28.406)">
      <path id="패스_520" data-name="패스 520" d="M1241.488,564.008a7.393,7.393,0,1,1,7.393-7.393A7.4,7.4,0,0,1,1241.488,564.008Zm0-13.442a6.049,6.049,0,1,0,6.049,6.049A6.055,6.055,0,0,0,1241.488,550.566Z" transform="translate(-1234.095 -549.222)" fill="#1e1e1e"/>
    </g>
    <g id="그룹_525" data-name="그룹 525" transform="translate(30.77 22.447)">
      <path id="패스_521" data-name="패스 521" d="M1242.626,558.528h-11.165a.673.673,0,0,1-.621-.929l5.109-12.394a.671.671,0,0,1,.621-.417h4.069a.672.672,0,1,1,0,1.344h-3.619l-1.383,3.355,7.477,7.906a.672.672,0,0,1-.488,1.135Zm-10.161-1.344h8.6l-5.988-6.333Z" transform="translate(-1230.789 -544.789)" fill="#1e1e1e"/>
    </g>
    <g id="그룹_526" data-name="그룹 526" transform="translate(22.823 24.309)">
      <rect id="사각형_90" data-name="사각형 90" width="1.345" height="13.49" transform="matrix(0.801, -0.599, 0.599, 0.801, 0, 0.805)" fill="#1e1e1e"/>
    </g>
    <g id="그룹_528" data-name="그룹 528" transform="translate(8.028 13.979)" opacity="0.9">
      <g id="그룹_527" data-name="그룹 527">
        <path id="패스_522" data-name="패스 522" d="M1217.9,538.489a4.033,4.033,0,1,0,4.033,4.033A4.033,4.033,0,0,0,1217.9,538.489Zm0,6.049a2.016,2.016,0,1,1,2.016-2.016A2.016,2.016,0,0,1,1217.9,544.538Z" transform="translate(-1213.871 -538.489)" fill="#00eb9a"/>
      </g>
    </g>
    <g id="그룹_529" data-name="그룹 529" transform="translate(2.909)">
      <path id="패스_523" data-name="패스 523" d="M1226.444,571.447h-7.711V570.1h7.711a.611.611,0,0,0,.578-.637V530.071a.611.611,0,0,0-.578-.637h-14.46a.61.61,0,0,0-.577.637v39.394a.61.61,0,0,0,.577.637h3.23v1.344h-3.23a1.954,1.954,0,0,1-1.921-1.981V530.071a1.954,1.954,0,0,1,1.921-1.981h14.46a1.955,1.955,0,0,1,1.922,1.981v39.394A1.955,1.955,0,0,1,1226.444,571.447Z" transform="translate(-1210.063 -528.09)" fill="#1e1e1e"/>
    </g>
    <g id="그룹_530" data-name="그룹 530" transform="translate(11.388 28.406)">
      <circle id="타원_26" data-name="타원 26" cx="6.721" cy="6.721" r="6.721" transform="translate(0.672 0.671)" fill="#fff"/>
      <path id="패스_524" data-name="패스 524" d="M1223.764,564.008a7.393,7.393,0,1,1,7.393-7.393A7.4,7.4,0,0,1,1223.764,564.008Zm0-13.442a6.049,6.049,0,1,0,6.049,6.049A6.056,6.056,0,0,0,1223.764,550.566Z" transform="translate(-1216.371 -549.222)" fill="#1e1e1e"/>
    </g>
    <g id="그룹_531" data-name="그룹 531" transform="translate(18.11 17.635)">
      <path id="패스_525" data-name="패스 525" d="M1222.043,560.046a.655.655,0,0,1-.255-.051.673.673,0,0,1-.366-.878l7.225-17.491a.671.671,0,0,1,.621-.417h4.669a.672.672,0,0,1,0,1.344h-4.22l-7.053,17.076A.672.672,0,0,1,1222.043,560.046Z" transform="translate(-1221.371 -541.209)" fill="#1e1e1e"/>
    </g>
    <g id="그룹_19441" data-name="그룹 19441" transform="translate(39.712 14.283)">
      <path id="패스_8062" data-name="패스 8062" d="M1520.6,750.166h-1.33a4.588,4.588,0,0,0-.7-1.7l.937-.938a.178.178,0,0,0,0-.251l-1-1a.177.177,0,0,0-.25,0l-.937.938a4.624,4.624,0,0,0-1.7-.7v-1.329a.178.178,0,0,0-.178-.178h-1.419a.177.177,0,0,0-.177.178v1.329a4.608,4.608,0,0,0-1.7.7l-.938-.938a.178.178,0,0,0-.251,0l-1,1a.177.177,0,0,0,0,.251l.938.938a4.608,4.608,0,0,0-.7,1.7h-1.329a.177.177,0,0,0-.178.177v1.419a.178.178,0,0,0,.178.178h1.329a4.617,4.617,0,0,0,.7,1.7l-.938.937a.179.179,0,0,0,0,.252l1,1a.175.175,0,0,0,.251,0l.938-.937a4.587,4.587,0,0,0,1.7.7v1.331a.176.176,0,0,0,.177.177h1.419a.177.177,0,0,0,.178-.177V755.6a4.6,4.6,0,0,0,1.7-.7l.937.937a.175.175,0,0,0,.25,0l1-1a.179.179,0,0,0,0-.252l-.937-.937a4.623,4.623,0,0,0,.7-1.7h1.33a.177.177,0,0,0,.177-.178v-1.419A.176.176,0,0,0,1520.6,750.166Z" transform="translate(-1508.667 -744.999)" fill="#00e789"/>
      <g id="패스_8063" data-name="패스 8063" transform="translate(-1508.667 -744.999)" fill="none" stroke-linecap="round" stroke-linejoin="round">
        <path d="M1520.83,750.4H1519.5a4.624,4.624,0,0,0-.7-1.7l.938-.937a.178.178,0,0,0,0-.251l-1-1a.177.177,0,0,0-.25,0l-.938.937a4.628,4.628,0,0,0-1.7-.7v-1.33a.177.177,0,0,0-.177-.177h-1.419a.178.178,0,0,0-.178.177v1.33a4.646,4.646,0,0,0-1.7.7l-.937-.937a.178.178,0,0,0-.251,0l-1,1a.178.178,0,0,0,0,.251l.937.937a4.6,4.6,0,0,0-.7,1.7h-1.331a.177.177,0,0,0-.177.178V752a.177.177,0,0,0,.177.178h1.331a4.6,4.6,0,0,0,.7,1.7l-.937.937a.178.178,0,0,0,0,.251l1,1a.178.178,0,0,0,.251,0l.937-.937a4.646,4.646,0,0,0,1.7.7v1.33a.178.178,0,0,0,.178.177h1.419a.177.177,0,0,0,.177-.177v-1.33a4.628,4.628,0,0,0,1.7-.7l.938.937a.177.177,0,0,0,.25,0l1-1a.178.178,0,0,0,0-.251l-.938-.937a4.624,4.624,0,0,0,.7-1.7h1.329a.178.178,0,0,0,.178-.178v-1.419A.178.178,0,0,0,1520.83,750.4Z" stroke="none"/>
        <path d="M 1514.245849609375 745.2340087890625 C 1514.147705078125 745.2340087890625 1514.067749023438 745.3138427734375 1514.067749023438 745.4107666015625 L 1514.067749023438 746.7412109375 C 1513.447998046875 746.8623046875 1512.87060546875 747.1019287109375 1512.364379882812 747.442138671875 L 1511.427490234375 746.505126953125 C 1511.3583984375 746.4361572265625 1511.245727539062 746.4361572265625 1511.176879882812 746.505126953125 L 1510.173217773438 747.5087890625 C 1510.104248046875 747.5777587890625 1510.104248046875 747.6904296875 1510.173217773438 747.7593994140625 L 1511.110229492188 748.6964111328125 C 1510.768798828125 749.2025146484375 1510.529052734375 749.7799072265625 1510.409301757812 750.3997802734375 L 1509.078735351562 750.3997802734375 C 1508.980834960938 750.3997802734375 1508.901977539062 750.479736328125 1508.901977539062 750.5777587890625 L 1508.901977539062 751.99658203125 C 1508.901977539062 752.0946044921875 1508.980834960938 752.174560546875 1509.078735351562 752.174560546875 L 1510.409301757812 752.174560546875 C 1510.529052734375 752.79443359375 1510.768798828125 753.371826171875 1511.110229492188 753.8779296875 L 1510.173217773438 754.81494140625 C 1510.104248046875 754.884033203125 1510.104248046875 754.9964599609375 1510.173217773438 755.0655517578125 L 1511.176879882812 756.0692138671875 C 1511.245727539062 756.13818359375 1511.3583984375 756.13818359375 1511.427490234375 756.0692138671875 L 1512.364379882812 755.132080078125 C 1512.87060546875 755.4722900390625 1513.447998046875 755.7120361328125 1514.067749023438 755.8331298828125 L 1514.067749023438 757.16357421875 C 1514.067749023438 757.260498046875 1514.147705078125 757.34033203125 1514.245849609375 757.34033203125 L 1515.664672851562 757.34033203125 C 1515.7626953125 757.34033203125 1515.841430664062 757.260498046875 1515.841430664062 757.16357421875 L 1515.841430664062 755.8331298828125 C 1516.46240234375 755.7120361328125 1517.039916992188 755.4722900390625 1517.544799804688 755.132080078125 L 1518.483032226562 756.0692138671875 C 1518.551879882812 756.13818359375 1518.664428710938 756.13818359375 1518.733520507812 756.0692138671875 L 1519.7373046875 755.0655517578125 C 1519.806274414062 754.9964599609375 1519.806274414062 754.884033203125 1519.7373046875 754.81494140625 L 1518.798950195312 753.8779296875 C 1519.140380859375 753.371826171875 1519.380126953125 752.79443359375 1519.501098632812 752.174560546875 L 1520.830444335938 752.174560546875 C 1520.928588867188 752.174560546875 1521.00830078125 752.0946044921875 1521.00830078125 751.99658203125 L 1521.00830078125 750.5777587890625 C 1521.00830078125 750.479736328125 1520.928588867188 750.3997802734375 1520.830444335938 750.3997802734375 L 1519.501098632812 750.3997802734375 C 1519.380126953125 749.7799072265625 1519.140380859375 749.2025146484375 1518.798950195312 748.6964111328125 L 1519.7373046875 747.7593994140625 C 1519.806274414062 747.6904296875 1519.806274414062 747.5777587890625 1519.7373046875 747.5087890625 L 1518.733520507812 746.505126953125 C 1518.664428710938 746.4361572265625 1518.551879882812 746.4361572265625 1518.483032226562 746.505126953125 L 1517.544799804688 747.442138671875 C 1517.039916992188 747.1019287109375 1516.46240234375 746.8623046875 1515.841430664062 746.7412109375 L 1515.841430664062 745.4107666015625 C 1515.841430664062 745.3138427734375 1515.7626953125 745.2340087890625 1515.664672851562 745.2340087890625 L 1514.245849609375 745.2340087890625 M 1514.245849609375 744.2340087890625 L 1515.664672851562 744.2340087890625 C 1516.313598632812 744.2340087890625 1516.841430664062 744.7619018554688 1516.841430664062 745.4107666015625 L 1516.841430664062 745.9789428710938 C 1517.023559570312 746.04296875 1517.201538085938 746.1161499023438 1517.375122070312 746.1982421875 L 1517.7763671875 745.7975463867188 C 1517.998046875 745.5758056640625 1518.293701171875 745.4534301757812 1518.608276367188 745.4534301757812 C 1518.922729492188 745.4534301757812 1519.218383789062 745.5758056640625 1519.440673828125 745.7980346679688 L 1520.4443359375 746.8016357421875 C 1520.903442382812 747.2606811523438 1520.903442382812 748.0075073242188 1520.444458007812 748.4664916992188 L 1520.043701171875 748.8666381835938 C 1520.125854492188 749.0401000976562 1520.198974609375 749.2179565429688 1520.263061523438 749.3997802734375 L 1520.830444335938 749.3997802734375 C 1521.479858398438 749.3997802734375 1522.00830078125 749.92822265625 1522.00830078125 750.5777587890625 L 1522.00830078125 751.99658203125 C 1522.00830078125 752.6461181640625 1521.479858398438 753.174560546875 1520.830444335938 753.174560546875 L 1520.263061523438 753.174560546875 C 1520.198974609375 753.3563842773438 1520.125854492188 753.5342407226562 1520.043701171875 753.7077026367188 L 1520.44384765625 754.1072998046875 C 1520.90283203125 754.5670776367188 1520.90283203125 755.3134155273438 1520.445068359375 755.7720336914062 L 1519.440551757812 756.7763671875 C 1519.21826171875 756.9985961914062 1518.922729492188 757.1209106445312 1518.608276367188 757.1209106445312 C 1518.293701171875 757.1209106445312 1517.998168945312 756.99853515625 1517.77587890625 756.7763061523438 L 1517.375122070312 756.3760375976562 C 1517.201538085938 756.4581298828125 1517.023559570312 756.5313110351562 1516.841430664062 756.5953369140625 L 1516.841430664062 757.16357421875 C 1516.841430664062 757.8124389648438 1516.313598632812 758.34033203125 1515.664672851562 758.34033203125 L 1514.245849609375 758.34033203125 C 1513.59619140625 758.34033203125 1513.067749023438 757.8124389648438 1513.067749023438 757.16357421875 L 1513.067749023438 756.5950317382812 C 1512.886108398438 756.5310668945312 1512.708251953125 756.4579467773438 1512.534790039062 756.3759765625 L 1512.134643554688 756.7762451171875 C 1511.91162109375 756.998779296875 1511.6162109375 757.1209106445312 1511.302124023438 757.1209106445312 C 1510.987548828125 757.1209106445312 1510.692016601562 756.99853515625 1510.4697265625 756.7763061523438 L 1509.466064453125 755.7726440429688 C 1509.007690429688 755.3134155273438 1509.007690429688 754.5670776367188 1509.465454101562 754.1084594726562 L 1509.86572265625 753.7081909179688 C 1509.783569335938 753.5345458984375 1509.710327148438 753.3565063476562 1509.646362304688 753.174560546875 L 1509.078735351562 753.174560546875 C 1508.429809570312 753.174560546875 1507.901977539062 752.6461181640625 1507.901977539062 751.99658203125 L 1507.901977539062 750.5777587890625 C 1507.901977539062 749.92822265625 1508.429809570312 749.3997802734375 1509.078735351562 749.3997802734375 L 1509.646362304688 749.3997802734375 C 1509.710327148438 749.2178344726562 1509.783569335938 749.0398559570312 1509.86572265625 748.8661499023438 L 1509.466064453125 748.4664916992188 C 1509.243896484375 748.2442626953125 1509.121459960938 747.9486694335938 1509.121459960938 747.6340942382812 C 1509.121459960938 747.3195190429688 1509.243896484375 747.02392578125 1509.466064453125 746.8016967773438 L 1510.4697265625 745.7980346679688 C 1510.69189453125 745.5758056640625 1510.987548828125 745.4534301757812 1511.302124023438 745.4534301757812 C 1511.616333007812 745.4534301757812 1511.911743164062 745.5755615234375 1512.134033203125 745.7974243164062 L 1512.534790039062 746.1983032226562 C 1512.708251953125 746.1162719726562 1512.885986328125 746.0432739257812 1513.067749023438 745.979248046875 L 1513.067749023438 745.4107666015625 C 1513.067749023438 744.7619018554688 1513.59619140625 744.2340087890625 1514.245849609375 744.2340087890625 Z" stroke="none" fill="#1e1e1e"/>
      </g>
      <g id="그룹_19440" data-name="그룹 19440" transform="translate(3.794 3.795)">
        <circle id="타원_187" data-name="타원 187" cx="1.695" cy="1.695" r="1.695" transform="translate(0.841 0.841)" fill="#fff"/>
        <path id="패스_8064" data-name="패스 8064" d="M1514.243,753.11a2.535,2.535,0,1,1,2.535-2.535A2.538,2.538,0,0,1,1514.243,753.11Zm0-3.915a1.38,1.38,0,1,0,1.38,1.38A1.382,1.382,0,0,0,1514.243,749.2Z" transform="translate(-1511.707 -748.04)" fill="#1e1e1e"/>
      </g>
    </g>
  </g>
</svg>
