<svg id="icon_rental" data-name="icon/rental" xmlns="http://www.w3.org/2000/svg" width="70" height="70" viewBox="0 0 70 70">
  <circle id="icon-bg" cx="35" cy="35" r="35" fill="none"/>
  <g id="path" transform="translate(-1197.899 -515.09)">
    <g id="그룹_519" data-name="그룹 519" transform="translate(1211.893 528.763)">
      <rect id="사각형_88" data-name="사각형 88" width="16.547" height="8.232" rx="1.067" fill="#00e789"/>
    </g>
    <g id="그룹_520" data-name="그룹 520" transform="translate(1211.221 536.322)">
      <path id="패스_518" data-name="패스 518" d="M1224.658,535.558h-13.616a.672.672,0,0,1,0-1.344h13.616a.672.672,0,0,1,0,1.344Z" transform="translate(-1210.37 -534.214)" fill="#1e1e1e"/>
    </g>
    <g id="그룹_521" data-name="그룹 521" transform="translate(1207.899 570.103)">
      <path id="패스_519" data-name="패스 519" d="M1216.311,560.688h-7.74a.672.672,0,1,1,0-1.344h7.74a.672.672,0,0,1,0,1.344Z" transform="translate(-1207.899 -559.344)" fill="#1e1e1e"/>
    </g>
    <g id="그룹_522" data-name="그룹 522" transform="translate(1219.96 570.102)">
      <rect id="사각형_89" data-name="사각형 89" width="35.766" height="1.344" fill="#1e1e1e"/>
    </g>
    <g id="그룹_523" data-name="그룹 523" transform="translate(1215.927 548.544)">
      <circle id="타원_25" data-name="타원 25" cx="4.033" cy="4.033" r="4.033" fill="#485f6e"/>
    </g>
    <g id="그룹_524" data-name="그룹 524" transform="translate(1243.112 556.496)">
      <path id="패스_520" data-name="패스 520" d="M1241.488,564.008a7.393,7.393,0,1,1,7.393-7.393A7.4,7.4,0,0,1,1241.488,564.008Zm0-13.442a6.049,6.049,0,1,0,6.049,6.049A6.055,6.055,0,0,0,1241.488,550.566Z" transform="translate(-1234.095 -549.222)" fill="#1e1e1e"/>
    </g>
    <g id="그룹_525" data-name="그룹 525" transform="translate(1238.669 550.537)">
      <path id="패스_521" data-name="패스 521" d="M1242.626,558.528h-11.165a.673.673,0,0,1-.621-.929l5.109-12.394a.671.671,0,0,1,.621-.417h4.069a.672.672,0,1,1,0,1.344h-3.619l-1.383,3.355,7.477,7.906a.672.672,0,0,1-.488,1.135Zm-10.161-1.344h8.6l-5.988-6.333Z" transform="translate(-1230.789 -544.789)" fill="#1e1e1e"/>
    </g>
    <g id="그룹_526" data-name="그룹 526" transform="translate(1230.722 552.399)">
      <rect id="사각형_90" data-name="사각형 90" width="1.345" height="13.49" transform="matrix(0.801, -0.599, 0.599, 0.801, 0, 0.805)" fill="#1e1e1e"/>
    </g>
    <g id="그룹_528" data-name="그룹 528" transform="translate(1215.927 542.069)" opacity="0.9">
      <g id="그룹_527" data-name="그룹 527">
        <path id="패스_522" data-name="패스 522" d="M1217.9,538.489a4.033,4.033,0,1,0,4.033,4.033A4.033,4.033,0,0,0,1217.9,538.489Zm0,6.049a2.016,2.016,0,1,1,2.016-2.016A2.016,2.016,0,0,1,1217.9,544.538Z" transform="translate(-1213.871 -538.489)" fill="#00eb9a"/>
      </g>
    </g>
    <g id="그룹_529" data-name="그룹 529" transform="translate(1210.808 528.09)">
      <path id="패스_523" data-name="패스 523" d="M1226.444,571.447h-7.711V570.1h7.711a.611.611,0,0,0,.578-.637V530.071a.611.611,0,0,0-.578-.637h-14.46a.61.61,0,0,0-.577.637v39.394a.61.61,0,0,0,.577.637h3.23v1.344h-3.23a1.954,1.954,0,0,1-1.921-1.981V530.071a1.954,1.954,0,0,1,1.921-1.981h14.46a1.955,1.955,0,0,1,1.922,1.981v39.394A1.955,1.955,0,0,1,1226.444,571.447Z" transform="translate(-1210.063 -528.09)" fill="#1e1e1e"/>
    </g>
    <g id="그룹_530" data-name="그룹 530" transform="translate(1219.287 556.496)">
      <circle id="타원_26" data-name="타원 26" cx="6.721" cy="6.721" r="6.721" transform="translate(0.672 0.671)" fill="#fff"/>
      <path id="패스_524" data-name="패스 524" d="M1223.764,564.008a7.393,7.393,0,1,1,7.393-7.393A7.4,7.4,0,0,1,1223.764,564.008Zm0-13.442a6.049,6.049,0,1,0,6.049,6.049A6.056,6.056,0,0,0,1223.764,550.566Z" transform="translate(-1216.371 -549.222)" fill="#1e1e1e"/>
    </g>
    <g id="그룹_531" data-name="그룹 531" transform="translate(1226.009 545.725)">
      <path id="패스_525" data-name="패스 525" d="M1222.043,560.046a.655.655,0,0,1-.255-.051.673.673,0,0,1-.366-.878l7.225-17.491a.671.671,0,0,1,.621-.417h4.669a.672.672,0,0,1,0,1.344h-4.22l-7.053,17.076A.672.672,0,0,1,1222.043,560.046Z" transform="translate(-1221.371 -541.209)" fill="#1e1e1e"/>
    </g>
  </g>
</svg>
