<svg id="icon_facebook" data-name="icon/facebook" xmlns="http://www.w3.org/2000/svg" width="24" height="24" viewBox="0 0 24 24">
  <g id="그룹_19431" data-name="그룹 19431" transform="translate(0 0)">
    <circle id="타원_186" data-name="타원 186" cx="12" cy="12" r="12" transform="translate(0 0)" fill="#4768a9"/>
    <g id="그룹_19430" data-name="그룹 19430" transform="translate(8.794 5.37)">
      <path id="패스_8053" data-name="패스 8053" d="M1257.213,827.5h-1.855v-1.906l1.855-.017v-.035a9.48,9.48,0,0,1,.147-1.742,3.844,3.844,0,0,1,.494-1.343,2.376,2.376,0,0,1,.936-.815,3.374,3.374,0,0,1,1.508-.294,6.348,6.348,0,0,1,.745.043c.242.029.485.067.728.113l-.1,2.028a4.352,4.352,0,0,0-1.11-.277.8.8,0,0,0-.823.607,5.734,5.734,0,0,0-.2,1.716v.017h2.15V827.5h-2.15v7.107h-2.322Z" transform="translate(-1255.358 -821.345)" fill="#fff"/>
    </g>
  </g>
</svg>
