<svg id="icon_fee" data-name="icon/fee" xmlns="http://www.w3.org/2000/svg" width="70" height="70" viewBox="0 0 70 70">
  <circle id="icon-bg" cx="35" cy="35" r="35" fill="none"/>
  <g id="path" transform="translate(-1591.299 -499.937)">
    <g id="그룹_533" data-name="그룹 533" transform="translate(1603.053 517.69)">
      <rect id="사각형_91" data-name="사각형 91" width="31.636" height="5.519" rx="1.243" fill="#00e789"/>
    </g>
    <g id="그룹_534" data-name="그룹 534" transform="translate(1602.299 516.937)">
      <path id="패스_526" data-name="패스 526" d="M1636.663,544.914h-31.287a3.191,3.191,0,0,1-3.077-3.287v-8.246a.756.756,0,1,1,1.507,0v8.246a1.619,1.619,0,0,0,1.57,1.658h31.287a1.618,1.618,0,0,0,1.57-1.658v-21.4a1.618,1.618,0,0,0-1.57-1.658h-31.287a1.619,1.619,0,0,0-1.57,1.658V528.4a.756.756,0,1,1-1.507,0v-8.181a3.19,3.19,0,0,1,3.077-3.287h31.287a3.19,3.19,0,0,1,3.077,3.287v21.4A3.191,3.191,0,0,1,1636.663,544.914Z" transform="translate(-1602.299 -516.937)" fill="#1e1e1e"/>
    </g>
    <g id="그룹_535" data-name="그룹 535" transform="translate(1603.052 522.867)">
      <rect id="사각형_92" data-name="사각형 92" width="36.524" height="1.507" fill="#1e1e1e"/>
    </g>
    <g id="그룹_542" data-name="그룹 542" transform="translate(1632.312 535.44)">
      <g id="그룹_536" data-name="그룹 536" transform="translate(0.753 0.451)">
        <rect id="사각형_93" data-name="사각형 93" width="14.145" height="5.519" rx="1.243" fill="#00e789"/>
      </g>
      <g id="그룹_537" data-name="그룹 537" transform="translate(3.335 5.567)">
        <rect id="사각형_94" data-name="사각형 94" width="14.145" height="5.519" rx="1.243" fill="#00e789"/>
      </g>
      <g id="그룹_538" data-name="그룹 538" transform="translate(0.558 11.608)">
        <rect id="사각형_95" data-name="사각형 95" width="13.459" height="2.237" fill="#00e789"/>
      </g>
      <g id="그룹_539" data-name="그룹 539" transform="translate(0.389)">
        <path id="패스_527" data-name="패스 527" d="M1633.362,532.846h-8.844a3.21,3.21,0,0,1,0-6.421h8.844a3.21,3.21,0,0,1,0,6.421Zm-8.844-4.914a1.7,1.7,0,0,0,0,3.407h8.844a1.7,1.7,0,0,0,0-3.407Z" transform="translate(-1621.31 -526.425)" fill="#1e1e1e"/>
      </g>
      <g id="그룹_540" data-name="그룹 540" transform="translate(2.776 5.116)">
        <path id="패스_528" data-name="패스 528" d="M1634.948,536.241H1626.1a3.21,3.21,0,0,1,0-6.421h8.844a3.21,3.21,0,0,1,0,6.421Zm-8.844-4.914a1.7,1.7,0,0,0,0,3.407h8.844a1.7,1.7,0,0,0,0-3.407Z" transform="translate(-1622.894 -529.82)" fill="#1e1e1e"/>
      </g>
      <g id="그룹_541" data-name="그룹 541" transform="translate(0 10.232)">
        <path id="패스_529" data-name="패스 529" d="M1633.1,539.636h-8.843a3.21,3.21,0,0,1,0-6.421h8.843a3.21,3.21,0,0,1,0,6.421Zm-8.843-4.914a1.7,1.7,0,0,0,0,3.407h8.843a1.7,1.7,0,0,0,0-3.407Z" transform="translate(-1621.052 -533.215)" fill="#1e1e1e"/>
      </g>
    </g>
    <g id="그룹_547" data-name="그룹 547" transform="translate(1611.015 530.351)">
      <g id="그룹_543" data-name="그룹 543">
        <path id="패스_530" data-name="패스 530" d="M1606.26,532.357a.9.9,0,0,0,.077.38.8.8,0,0,0,.209.27.95.95,0,0,0,.3.165,1.18,1.18,0,0,0,.351.055,2.211,2.211,0,0,0,.408-.031,1.564,1.564,0,0,0,.305-.086c.051-.022.105-.046.164-.075a.783.783,0,0,1,.189-.057.636.636,0,0,1,.33.026.518.518,0,0,1,.25.209.422.422,0,0,1,.061.382.63.63,0,0,1-.239.32,1.823,1.823,0,0,1-.681.305,3.362,3.362,0,0,1-.788.1,3.487,3.487,0,0,1-.856-.105,2.225,2.225,0,0,1-.747-.336,1.741,1.741,0,0,1-.524-.591,1.775,1.775,0,0,1-.2-.874v-1.28a1.78,1.78,0,0,1,.2-.874,1.733,1.733,0,0,1,.524-.588,2.185,2.185,0,0,1,.747-.336,3.5,3.5,0,0,1,.856-.105,3.266,3.266,0,0,1,.793.086,1.8,1.8,0,0,1,.536.215.709.709,0,0,1,.29.336.424.424,0,0,1-.04.4.556.556,0,0,1-.27.228.618.618,0,0,1-.344.037.772.772,0,0,1-.2-.059c-.061-.026-.116-.051-.167-.07a1.37,1.37,0,0,0-.252-.062,2.392,2.392,0,0,0-.34-.02,1.174,1.174,0,0,0-.351.055,1,1,0,0,0-.3.165.811.811,0,0,0-.209.272.883.883,0,0,0-.077.378Z" transform="translate(-1604.87 -529.228)"/>
      </g>
      <g id="그룹_544" data-name="그룹 544" transform="translate(4.6)">
        <path id="패스_531" data-name="패스 531" d="M1608.7,529.739a.706.706,0,0,1,.347-.386,1.139,1.139,0,0,1,.522-.125,1.049,1.049,0,0,1,.494.127.7.7,0,0,1,.334.384l1.761,4.472h-1.482l-.264-.764h-1.734l-.255.764h-1.458Zm.33,2.665h1.032l-.512-1.533Z" transform="translate(-1606.965 -529.228)"/>
      </g>
      <g id="그룹_545" data-name="그룹 545" transform="translate(10.521 0.024)">
        <path id="패스_532" data-name="패스 532" d="M1613.979,530.921a1.324,1.324,0,0,1-.226.773,1.783,1.783,0,0,1-.589.54l1.28,1.965h-1.524l-1.012-1.658h-.863V534.2h-1.383v-3.987a1.753,1.753,0,0,1,.051-.448.614.614,0,0,1,.173-.3.71.71,0,0,1,.323-.169,2.046,2.046,0,0,1,.507-.053h1.239a3.277,3.277,0,0,1,.812.094,1.861,1.861,0,0,1,.639.3,1.394,1.394,0,0,1,.421.5,1.577,1.577,0,0,1,.152.716Zm-2.934.58h.876a.693.693,0,0,0,.516-.174.558.558,0,0,0,.173-.406v-.044a.566.566,0,0,0-.173-.406.7.7,0,0,0-.516-.173h-.681a.261.261,0,0,0-.156.035.193.193,0,0,0-.04.145Z" transform="translate(-1609.662 -529.239)"/>
      </g>
      <g id="그룹_546" data-name="그룹 546" transform="translate(15.928 0.024)">
        <path id="패스_533" data-name="패스 533" d="M1614.182,529.239a3.307,3.307,0,0,1,.868.114,2.09,2.09,0,0,1,.768.382,1.911,1.911,0,0,1,.549.7,2.486,2.486,0,0,1,.21,1.078v.4a2.486,2.486,0,0,1-.21,1.078,1.928,1.928,0,0,1-.549.7,2.089,2.089,0,0,1-.768.382,3.307,3.307,0,0,1-.868.114h-1a2.073,2.073,0,0,1-.507-.053.71.71,0,0,1-.323-.169.633.633,0,0,1-.171-.3,1.655,1.655,0,0,1-.053-.448v-3.014a1.657,1.657,0,0,1,.053-.448.633.633,0,0,1,.171-.3.71.71,0,0,1,.323-.169,2.07,2.07,0,0,1,.507-.053Zm1.021,2.182a1.115,1.115,0,0,0-.291-.83,1.049,1.049,0,0,0-.769-.288h-.443a.252.252,0,0,0-.156.035.189.189,0,0,0-.042.145v2.47a.189.189,0,0,0,.042.145.255.255,0,0,0,.156.033h.443a1.048,1.048,0,0,0,.769-.285,1.118,1.118,0,0,0,.291-.83Z" transform="translate(-1612.125 -529.239)"/>
      </g>
    </g>
  </g>
</svg>
