<svg id="icon_station" data-name="icon/station" xmlns="http://www.w3.org/2000/svg" width="70" height="70" viewBox="0 0 70 70">
  <circle id="icon-bg" cx="35" cy="35" r="35" fill="none"/>
  <g id="pagh" transform="translate(-1760.523 -287.901)">
    <g id="그룹_18623" data-name="그룹 18623">
      <path id="패스_7884" data-name="패스 7884" d="M1788.685,316.851h-6.59a2.965,2.965,0,0,0-2.936,2.544l-2.968,20.6a2.966,2.966,0,0,0,2.936,3.39h33.705a2.967,2.967,0,0,0,2.937-3.39l-2.968-20.6a2.967,2.967,0,0,0-2.937-2.544h-5.883" fill="#fff"/>
      <path id="패스_7885" data-name="패스 7885" d="M1812.832,344.025h-33.7a3.6,3.6,0,0,1-3.568-4.117l2.968-20.6a3.623,3.623,0,0,1,3.568-3.09h6.589v1.274H1782.1a2.341,2.341,0,0,0-2.306,2l-2.968,20.6a2.329,2.329,0,0,0,2.306,2.662h33.7a2.329,2.329,0,0,0,2.306-2.662l-2.968-20.6a2.342,2.342,0,0,0-2.306-2h-5.883v-1.274h5.883a3.624,3.624,0,0,1,3.568,3.09l2.968,20.6a3.6,3.6,0,0,1-3.568,4.117Z" fill="#1e1e1e"/>
    </g>
    <g id="그룹_18629" data-name="그룹 18629">
      <g id="그룹_18625" data-name="그룹 18625">
        <g id="그룹_18624" data-name="그룹 18624">
          <circle id="타원_118" data-name="타원 118" cx="6.45" cy="6.45" r="6.45" transform="translate(1784.351 323.669)" fill="#485f6e"/>
        </g>
      </g>
      <g id="그룹_18628" data-name="그룹 18628" opacity="0.9">
        <g id="그룹_18627" data-name="그룹 18627">
          <g id="그룹_18626" data-name="그룹 18626">
            <path id="패스_7886" data-name="패스 7886" d="M1807.609,330.119a6.45,6.45,0,1,0-6.45,6.451A6.45,6.45,0,0,0,1807.609,330.119Zm-9.675,0a3.225,3.225,0,1,1,3.225,3.226A3.225,3.225,0,0,1,1797.934,330.119Z" fill="#00eb9a"/>
          </g>
        </g>
      </g>
    </g>
    <g id="그룹_18633" data-name="그룹 18633">
      <g id="그룹_18630" data-name="그룹 18630">
        <path id="패스_7887" data-name="패스 7887" d="M1803.305,312.2a9.916,9.916,0,0,1-1.527,4.472,46.853,46.853,0,0,1-5.746,7.631,1.676,1.676,0,0,1-2.5,0c-2.367-2.615-7.273-8.474-7.273-12.1a8.522,8.522,0,1,1,17.042,0Z" fill="#00e789"/>
      </g>
      <g id="그룹_18631" data-name="그룹 18631">
        <path id="패스_7888" data-name="패스 7888" d="M1795.98,326.921a2.481,2.481,0,0,1-1.822-.8c-3.008-3.27-8.054-9.352-8.054-13.344a9.876,9.876,0,1,1,19.752,0,9.781,9.781,0,0,1-1.31,4.3,47.7,47.7,0,0,1-6.744,9.044A2.483,2.483,0,0,1,1795.98,326.921Zm0-22.745a8.611,8.611,0,0,0-8.6,8.6c0,3.693,5.4,9.959,7.718,12.481a1.225,1.225,0,0,0,1.767,0,46.452,46.452,0,0,0,6.553-8.769,8.114,8.114,0,0,0-7.436-12.313Z" fill="#1e1e1e"/>
      </g>
      <g id="그룹_18632" data-name="그룹 18632">
        <circle id="타원_119" data-name="타원 119" cx="3.259" cy="3.259" r="3.259" transform="translate(1792.721 309.399)" fill="#fff"/>
        <path id="패스_7889" data-name="패스 7889" d="M1795.98,316.554a3.9,3.9,0,1,1,3.9-3.9A3.9,3.9,0,0,1,1795.98,316.554Zm0-6.518a2.622,2.622,0,1,0,2.622,2.622A2.625,2.625,0,0,0,1795.98,310.036Z" fill="#1e1e1e"/>
      </g>
    </g>
  </g>
</svg>
