<svg id="icon_insur" data-name="icon/insur" xmlns="http://www.w3.org/2000/svg" xmlns:xlink="http://www.w3.org/1999/xlink" width="70" height="70" viewBox="0 0 70 70">
  <defs>
    <clipPath id="clip-path">
      <rect id="사각형_24348" data-name="사각형 24348" width="49.18" height="56.204" fill="none"/>
    </clipPath>
  </defs>
  <rect id="icon_bg" width="70" height="70" fill="none"/>
  <g id="그룹_19548" data-name="그룹 19548" transform="translate(7.953 4.09)">
    <g id="그룹_19547" data-name="그룹 19547" transform="translate(2.925 3.057)" clip-path="url(#clip-path)">
      <path id="패스_8414" data-name="패스 8414" d="M27.217,18.821a4.493,4.493,0,1,1,4.493-4.493,4.5,4.5,0,0,1-4.493,4.493m0-7.469a2.977,2.977,0,1,0,2.977,2.977,2.981,2.981,0,0,0-2.977-2.977" transform="translate(11.733 5.077)" fill="#1e1e1e"/>
      <path id="패스_8415" data-name="패스 8415" d="M28.057,16.055h-6.2a.758.758,0,0,1-.7-1.046l1.877-4.558.011-.026.951-2.3a.757.757,0,0,1,.7-.47h2.261a.758.758,0,0,1,0,1.516H25.2l-.575,1.4,3.982,4.212a.758.758,0,0,1-.55,1.28m-5.071-1.516H26.3L23.992,12.1Z" transform="translate(10.892 3.95)" fill="#1e1e1e"/>
      <rect id="사각형_24347" data-name="사각형 24347" width="1.518" height="7.496" transform="translate(27.649 13.698) rotate(-36.793)" fill="#1e1e1e"/>
      <path id="패스_8416" data-name="패스 8416" d="M21.963,14.07a3.735,3.735,0,1,1-3.735-3.735,3.735,3.735,0,0,1,3.735,3.735" transform="translate(7.483 5.336)" fill="#fff"/>
      <path id="패스_8417" data-name="패스 8417" d="M18.488,18.821a4.493,4.493,0,1,1,4.493-4.493,4.5,4.5,0,0,1-4.493,4.493m0-7.469a2.977,2.977,0,1,0,2.977,2.977,2.981,2.981,0,0,0-2.977-2.977" transform="translate(7.226 5.077)" fill="#1e1e1e"/>
      <path id="패스_8418" data-name="패스 8418" d="M17.216,17.122a.74.74,0,0,1-.288-.058.757.757,0,0,1-.412-.989l4.015-9.72a.756.756,0,0,1,.7-.469h2.593a.758.758,0,1,1,0,1.516H21.736l-3.82,9.248a.756.756,0,0,1-.7.47" transform="translate(8.498 3.039)" fill="#1e1e1e"/>
      <path id="패스_8419" data-name="패스 8419" d="M39.656,49.773H14.29a4.44,4.44,0,0,1-4.434-4.435V4.435A4.44,4.44,0,0,1,14.29,0h3.061a.758.758,0,1,1,0,1.516H14.29a2.921,2.921,0,0,0-2.917,2.919v40.9a2.921,2.921,0,0,0,2.917,2.919H39.656a2.921,2.921,0,0,0,2.919-2.919l0-6.08h0V4.435a2.921,2.921,0,0,0-2.919-2.919h-14.6a.758.758,0,1,1,0-1.516h14.6a4.441,4.441,0,0,1,4.435,4.435v40.9a4.441,4.441,0,0,1-4.435,4.435" transform="translate(5.089 -0.001)" fill="#1e1e1e"/>
      <path id="패스_8420" data-name="패스 8420" d="M31.45,21.469H16.366a.758.758,0,1,1,0-1.516H31.45a.758.758,0,1,1,0,1.516" transform="translate(8.059 10.301)" fill="#1e1e1e"/>
      <path id="패스_8421" data-name="패스 8421" d="M28.53,24.367H17.8a.758.758,0,1,1,0-1.516H28.53a.758.758,0,1,1,0,1.516" transform="translate(8.801 11.798)" fill="#1e1e1e"/>
      <path id="패스_8422" data-name="패스 8422" d="M28.53,27.264H17.8a.758.758,0,1,1,0-1.516H28.53a.758.758,0,1,1,0,1.516" transform="translate(8.801 13.293)" fill="#1e1e1e"/>
      <path id="패스_8423" data-name="패스 8423" d="M21.682,41.689l-8.561,4.64a2.489,2.489,0,0,1-2.338.018L1.838,41.682A2.49,2.49,0,0,1,.5,39.474V19.565a2.489,2.489,0,0,1,2.49-2.49H20.5a2.49,2.49,0,0,1,2.49,2.49V39.5a2.489,2.489,0,0,1-1.3,2.19" transform="translate(0.259 8.815)" fill="#fff"/>
      <path id="패스_8424" data-name="패스 8424" d="M12.193,47.646a3.258,3.258,0,0,1-1.5-.368L1.747,42.611A3.238,3.238,0,0,1,0,39.731V19.822a3.252,3.252,0,0,1,3.249-3.248H20.755A3.252,3.252,0,0,1,24,19.822V39.758a3.246,3.246,0,0,1-1.7,2.855l-8.561,4.638a3.237,3.237,0,0,1-1.548.394M3.249,18.09a1.734,1.734,0,0,0-1.733,1.732V39.731a1.726,1.726,0,0,0,.931,1.535l8.945,4.667a1.713,1.713,0,0,0,1.624-.012l8.564-4.64a1.734,1.734,0,0,0,.907-1.522V19.822a1.733,1.733,0,0,0-1.732-1.732Z" transform="translate(0 8.557)" fill="#1e1e1e"/>
      <path id="패스_8425" data-name="패스 8425" d="M14.2,25.479H11.288V22.571H7.873v2.908H4.965V28.9H7.873V31.8h3.415V28.9H14.2Z" transform="translate(2.563 11.653)" fill="#00e789"/>
      <path id="패스_8426" data-name="패스 8426" d="M12.3,32.819H7.373V29.911H4.465V24.978H7.373V22.07H12.3v2.908h2.908v4.933H12.3ZM8.89,31.3h1.9V28.395H13.7v-1.9H10.788V23.586H8.89v2.908H5.981v1.9H8.89Z" transform="translate(2.305 11.394)"/>
    </g>
  </g>
</svg>
