<svg id="icon_pass" data-name="icon/pass" xmlns="http://www.w3.org/2000/svg" width="70" height="70" viewBox="0 0 70 70">
  <circle id="icon-bg" cx="35" cy="35" r="35" fill="none"/>
  <g id="path" transform="translate(-1565.86 -667.71)">
    <g id="그룹_549" data-name="그룹 549" transform="translate(1579.647 682.183)">
      <rect id="사각형_96" data-name="사각형 96" width="40.191" height="7.449" rx="0.426" fill="#00e789"/>
    </g>
    <g id="그룹_550" data-name="그룹 550" transform="translate(1578.86 680.71)">
      <path id="패스_534" data-name="패스 534" d="M1619.226,692.311h-36.68a3.689,3.689,0,0,1-3.685-3.685V684.4a3.689,3.689,0,0,1,3.685-3.685h36.68a3.689,3.689,0,0,1,3.685,3.685v4.23A3.689,3.689,0,0,1,1619.226,692.311Zm-36.68-10.029a2.116,2.116,0,0,0-2.114,2.114v4.23a2.117,2.117,0,0,0,2.114,2.114h36.68a2.117,2.117,0,0,0,2.114-2.114V684.4a2.116,2.116,0,0,0-2.114-2.114Z" transform="translate(-1578.86 -680.71)" fill="#1e1e1e"/>
    </g>
    <g id="그룹_551" data-name="그룹 551" transform="translate(1585.866 685.946)">
      <path id="패스_535" data-name="패스 535" d="M1588.4,720.823a4.586,4.586,0,0,1-4.586-4.587V684.542h29.423v31.694a4.586,4.586,0,0,1-4.585,4.587H1598.05" transform="translate(-1583.032 -683.756)" fill="#fff"/>
      <path id="패스_536" data-name="패스 536" d="M1608.943,721.895h-10.606a.786.786,0,0,1,0-1.571h10.606a3.805,3.805,0,0,0,3.8-3.8V685.614h-27.853v30.908a3.806,3.806,0,0,0,3.8,3.8.786.786,0,1,1,0,1.571,5.381,5.381,0,0,1-5.373-5.373v-32.48h31v32.48A5.378,5.378,0,0,1,1608.943,721.895Z" transform="translate(-1583.318 -684.042)" fill="#1e1e1e"/>
    </g>
    <g id="그룹_557" data-name="그룹 557" transform="translate(1589.37 696.115)">
      <g id="그룹_552" data-name="그룹 552" transform="translate(13.718 6.201)">
        <path id="패스_537" data-name="패스 537" d="M1598.933,703.772a4.656,4.656,0,1,1,4.656-4.656A4.661,4.661,0,0,1,1598.933,703.772Zm0-7.741a3.085,3.085,0,1,0,3.085,3.085A3.089,3.089,0,0,0,1598.933,696.03Z" transform="translate(-1594.277 -694.459)" fill="#1e1e1e"/>
      </g>
      <g id="그룹_553" data-name="그룹 553" transform="translate(11.16 2.771)">
        <path id="패스_538" data-name="패스 538" d="M1599.863,700.985h-6.429a.783.783,0,0,1-.724-1.084l1.946-4.724.011-.027.986-2.387a.782.782,0,0,1,.724-.487h2.344a.786.786,0,1,1,0,1.572H1596.9l-.594,1.446,4.127,4.367a.786.786,0,0,1-.572,1.325Zm-5.255-1.571h3.432l-2.388-2.527Z" transform="translate(-1592.65 -692.276)" fill="#1e1e1e"/>
      </g>
      <g id="그룹_554" data-name="그룹 554" transform="translate(6.663 4.002)">
        <rect id="사각형_97" data-name="사각형 97" width="1.572" height="7.769" transform="matrix(0.801, -0.599, 0.599, 0.801, 0, 0.942)" fill="#1e1e1e"/>
      </g>
      <g id="그룹_555" data-name="그룹 555" transform="translate(0 6.201)">
        <circle id="타원_27" data-name="타원 27" cx="3.87" cy="3.87" r="3.87" transform="translate(0.785 0.786)" fill="#fff"/>
        <path id="패스_539" data-name="패스 539" d="M1590.2,703.772a4.656,4.656,0,1,1,4.656-4.656A4.661,4.661,0,0,1,1590.2,703.772Zm0-7.741a3.085,3.085,0,1,0,3.085,3.085A3.089,3.089,0,0,0,1590.2,696.03Z" transform="translate(-1585.548 -694.459)" fill="#1e1e1e"/>
      </g>
      <g id="그룹_556" data-name="그룹 556" transform="translate(3.87)">
        <path id="패스_540" data-name="패스 540" d="M1588.8,702.156a.786.786,0,0,1-.726-1.086l4.16-10.072a.785.785,0,0,1,.726-.486h2.687a.786.786,0,1,1,0,1.572h-2.162l-3.958,9.584A.783.783,0,0,1,1588.8,702.156Z" transform="translate(-1588.011 -690.513)" fill="#1e1e1e"/>
      </g>
    </g>
  </g>
</svg>
