<svg id="btn-chat" xmlns="http://www.w3.org/2000/svg" xmlns:xlink="http://www.w3.org/1999/xlink" width="68" height="68" viewBox="0 0 68 68">
  <defs>
    <clipPath id="clip-path">
      <rect id="사각형_24367" data-name="사각형 24367" width="28.852" height="27.967" fill="none"/>
    </clipPath>
  </defs>
  <rect id="사각형_24365" data-name="사각형 24365" width="68" height="68" rx="34" fill="#60be88"/>
  <g id="그룹_19586" data-name="그룹 19586" transform="translate(-1493 -969.652)">
    <g id="그룹_19584" data-name="그룹 19584" transform="translate(1513 980.652)">
      <g id="그룹_19583" data-name="그룹 19583" clip-path="url(#clip-path)">
        <path id="패스_8496" data-name="패스 8496" d="M28.744,25.745l-2.32-5.4A14,14,0,1,0,22,25.433l5.076,2.027a1.3,1.3,0,0,0,1.672-1.715" fill="#fbffff"/>
        <path id="패스_8497" data-name="패스 8497" d="M12.049,13.184a1.311,1.311,0,1,1-1.311-1.311,1.312,1.312,0,0,1,1.311,1.311" transform="translate(-1.188 -1.496)" fill="#60be88"/>
        <path id="패스_8498" data-name="패스 8498" d="M21.445,13.183a1.311,1.311,0,1,1-1.311-1.311,1.311,1.311,0,0,1,1.311,1.311" transform="translate(-2.372 -1.496)" fill="#60be88"/>
        <path id="패스_8499" data-name="패스 8499" d="M15.051,22.013a3.985,3.985,0,0,1-3.98-3.98.874.874,0,1,1,1.748,0,2.232,2.232,0,1,0,4.463,0,.874.874,0,1,1,1.748,0,3.984,3.984,0,0,1-3.979,3.98" transform="translate(-1.395 -2.163)" fill="#60be88"/>
      </g>
    </g>
    <path id="패스_8500" data-name="패스 8500" d="M3.137,5.735V5.254h2V4.484H3.145V2.917H2.267V4.484H.245v.771H2.267v.481A5.15,5.15,0,0,1,0,10.086l.555.688A5.137,5.137,0,0,0,2.71,7.666a4.833,4.833,0,0,0,2.167,2.892l.539-.7A4.713,4.713,0,0,1,3.137,5.735Zm2.718,6.688h.87V7.533H8.151v5.42h.887V2.536H8.151v4.21H6.725V2.76h-.87ZM15.1,3.307h-5V8.246h.845a28.678,28.678,0,0,0,5.1-.29l-.1-.754a26.429,26.429,0,0,1-4.923.282V6.116h3.779V5.37H11.036V4.053H15.1ZM11.119,11.03c0,1.21,1.318,1.9,3.522,1.9,2.171,0,3.514-.688,3.514-1.9,0-1.193-1.343-1.889-3.514-1.881C12.436,9.141,11.119,9.837,11.119,11.03Zm.912,0c0-.713.978-1.152,2.61-1.152,1.6,0,2.6.439,2.6,1.152,0,.738-1,1.168-2.6,1.168C13.008,12.2,12.03,11.768,12.03,11.03ZM17.185,9h.92V2.544h-.92Zm7.262-4.782V3.075h-.9V4.152a3.867,3.867,0,0,1-2.619,3.58l.5.738a4.455,4.455,0,0,0,2.6-2.66,4.315,4.315,0,0,0,2.515,2.37l.5-.729A3.6,3.6,0,0,1,24.447,4.218Zm-2.13,6.812c0,1.21,1.309,1.9,3.456,1.9s3.431-.688,3.431-1.9c0-1.193-1.293-1.889-3.431-1.889S22.318,9.837,22.318,11.03Zm.92,0c-.008-.713.961-1.152,2.536-1.152s2.536.439,2.536,1.152c0,.738-.961,1.16-2.536,1.168C24.2,12.191,23.229,11.768,23.237,11.03Zm4.956-2.155h.92V6.025h1.566V5.254H29.113V2.536h-.92Zm10.336-6.34h-.92V8.445h.92V5.859H40.1V5.088H38.529Zm-7.649,5.3h.8a22.781,22.781,0,0,0,4.9-.356l-.116-.754a21.819,21.819,0,0,1-4.674.348V3.995h3.7V3.24H30.88ZM31.949,12.8h6.58V8.992h-6.58Zm.9-.746V9.738h4.765v2.32Z" transform="translate(1507 1012)" fill="#fff"/>
  </g>
</svg>
