<svg xmlns="http://www.w3.org/2000/svg" width="130" height="50" viewBox="0 0 130 50">
  <g id="logo_seoul" transform="translate(-895 -4445)">
    <rect id="사각형_24359" data-name="사각형 24359" width="130" height="50" transform="translate(895 4445)" fill="none"/>
    <g id="logo-seoul" transform="translate(735.595 4404.876)" opacity="0.278">
      <g id="그룹_19432" data-name="그룹 19432" transform="translate(167.405 58.655)">
        <rect id="사각형_24273" data-name="사각형 24273" width="3.249" height="14.775" transform="translate(0 0)" fill="#1a1818"/>
      </g>
      <g id="그룹_19433" data-name="그룹 19433" transform="translate(184.157 58.15)">
        <path id="패스_8054" data-name="패스 8054" d="M212.513,67.267c-2.554-.666-3.187-.989-3.187-1.975v-.042c0-.732.654-1.312,1.9-1.312a6.858,6.858,0,0,1,3.841,1.481l1.794-2.633a8.877,8.877,0,0,0-5.593-2.092c-3.019,0-5.435,1.741-5.435,4.662v.237c0,2.611,2.186,3.822,5.163,4.6,2.467.645,2.872,1.333,2.872,2.017v.041c0,.615-.7,1.232-2.029,1.232a7.7,7.7,0,0,1-4.724-1.939l-1.923,2.425a10.251,10.251,0,0,0,6.583,2.516c3.188,0,5.694-1.548,5.694-4.533V71.9C217.469,69.284,215.511,68.06,212.513,67.267Z" transform="translate(-205.192 -60.693)" fill="#1a1818"/>
      </g>
      <g id="그룹_19434" data-name="그룹 19434" transform="translate(198.994 58.655)">
        <path id="패스_8055" data-name="패스 8055" d="M241.89,70.613h6.964V67.722H241.89v-3H249.8V61.833H238.66V76.607h11.25V73.716h-8.02Z" transform="translate(-238.66 -61.833)" fill="#1a1818"/>
      </g>
      <g id="그룹_19435" data-name="그룹 19435" transform="translate(212.454 56.124)">
        <path id="패스_8056" data-name="패스 8056" d="M278.322,58.52v-2.4h-2.9v2.4a7.572,7.572,0,0,0-6.4,7.514v.042a7.856,7.856,0,0,0,15.7-.042V66A7.5,7.5,0,0,0,278.322,58.52Zm3,7.564a4.419,4.419,0,0,1-4.433,4.6,4.489,4.489,0,0,1-4.473-4.644V66a4.417,4.417,0,0,1,4.431-4.6,4.488,4.488,0,0,1,4.474,4.643Z" transform="translate(-269.021 -56.124)" fill="#1a1818"/>
      </g>
      <g id="그룹_19436" data-name="그룹 19436" transform="translate(230.685 58.655)">
        <path id="패스_8057" data-name="패스 8057" d="M319.768,70.3c0,2.343-1.2,3.547-3.188,3.547s-3.185-1.246-3.185-3.653V61.833h-3.25v8.441c0,4.349,2.427,6.566,6.394,6.566s6.479-2.2,6.479-6.672V61.833h-3.25Z" transform="translate(-310.145 -61.833)" fill="#1a1818"/>
      </g>
      <g id="그룹_19437" data-name="그룹 19437" transform="translate(246.875 58.655)">
        <path id="패스_8058" data-name="패스 8058" d="M349.913,61.833h-3.248V76.607H357.28V73.652h-7.367Z" transform="translate(-346.665 -61.833)" fill="#1a1818"/>
      </g>
      <g id="그룹_19438" data-name="그룹 19438" transform="translate(267.612 58.655)">
        <path id="패스_8059" data-name="패스 8059" d="M403.064,61.833V70.3c0,2.343-1.2,3.547-3.187,3.547s-3.187-1.246-3.187-3.653V61.833h-3.25v8.441c0,4.349,2.428,6.566,6.4,6.566s6.48-2.2,6.48-6.672V61.833Z" transform="translate(-393.44 -61.833)" fill="#1a1818"/>
      </g>
      <path id="패스_8060" data-name="패스 8060" d="M190.109,74.683a2.253,2.253,0,1,1-2.253-2.252A2.254,2.254,0,0,1,190.109,74.683Z" transform="translate(-10.131 -9.078)" fill="#b4002b"/>
      <path id="패스_8061" data-name="패스 8061" d="M376.911,74.683a2.252,2.252,0,1,1-2.252-2.251A2.252,2.252,0,0,1,376.911,74.683Z" transform="translate(-114.119 -9.078)" fill="#3787c9"/>
    </g>
  </g>
</svg>
